<?xml version="1.0" encoding="iso-8859-1"?>
<!-- Generator: Adobe Illustrator 13.0.0, SVG Export Plug-In . SVG Version: 6.00 Build 14948)  -->
<!DOCTYPE svg PUBLIC "-//W3C//DTD SVG 1.1//EN" "http://www.w3.org/Graphics/SVG/1.1/DTD/svg11.dtd">
<svg version="1.1" id="Layer_1" xmlns="http://www.w3.org/2000/svg" xmlns:xlink="http://www.w3.org/1999/xlink" x="0px" y="0px"
	 width="31px" height="30px" viewBox="0 0 31 30" style="enable-background:new 0 0 31 30;" xml:space="preserve">
<g>
	<path d="M15.604,25.217l-5.563,4.586l-6.205-4.479l2.816-6.615l-6.313-4.071l2.229-7.166l7.512,0.726l1.841-7.558l7.353-0.026
		l1.852,7.587l7.607-0.712l2.216,7.065l-6.399,4.153l2.834,6.708l-6.179,4.405L15.604,25.217L15.604,25.217z M20.775,17.55
		l6.601-4.282l-0.797-2.539l-7.773,0.728L16.9,3.647l-2.6,0.009l-1.902,7.805l-7.671-0.742L3.91,13.342l6.524,4.208l-2.869,6.737
		l2.352,1.698l5.684-4.685l5.733,4.711l0,0l2.32-1.653L20.775,17.55z"/>
</g>
</svg>
